.
 
http://www.scenetime.com    -   SceneTime [ We been having it ] !!!


How come you press harder on a remote control when you know the battery is dead? so you better seed to get speed ;)

        Seed back for speed


...................................NFO:.................................................[pre][img]http://shareimage.org/images/0yr4384ix05kwmmzyxoa.jpg[/img]   
            
*******************************************************************************
                Born.To.Ride.2011.DVDRip.XviD.AC3-PRESTiGE
*******************************************************************************

-------------------------------------------------------------------------------
                              General Information
-------------------------------------------------------------------------------

TiTLE............: Born.To.Ride.2011.DVDRip.XviD.AC3-PRESTiGE

iMDB.............: http://www.imdb.com/title/tt1721491/

GENRE............: Action 

LANGUAGE.........: English

FORMAT...........: AVi

SOURCE...........: DVDR-SiC MANY THANKS!!!

FiLE SiZE........: 1.37GB

SAMPLE iNCLUDED..: YES

SUBS.............: Soft English Subs (If Needed)

DURATiON.........: 1h 30mn

ENCODED by.......: akosipalos



ViDEO iNFO:

ID                               : 0
Format                           : MPEG-4 Visual
Format profile                   : Advanced Simple@L5
Format settings, BVOP            : Yes
Format settings, QPel            : No
Format settings, GMC             : No warppoints
Format settings, Matrix          : Custom
Codec ID                         : XVID
Codec ID/Hint                    : XviD
Duration                         : 1h 30mn
Bit rate                         : 1 846 Kbps
Width                            : 720 pixels
Height                           : 416 pixels
Display aspect ratio             : 16:9
Frame rate                       : 23.976 fps
Color space                      : YUV
Chroma subsampling               : 4:2:0
Bit depth                        : 8 bits
Scan type                        : Progressive
Bits/(Pixel*Frame)               : 0.257
Stream size                      : 1.16 GiB (85%)
Writing library                  : XviD 58


AUDiO iNFO:

ID                               : 1
Format                           : AC-3
Format/Info                      : Audio Coding 3
Mode extension                   : CM (complete main)
Codec ID                         : 2000
Duration                         : 1h 30mn
Bit rate mode                    : Constant
Bit rate                         : 320 Kbps
Channel(s)                       : 6 channels
Channel positions                : Front: L C R, Side: L R, LFE
Sampling rate                    : 48.0 KHz
Bit depth                        : 16 bits
Stream size                      : 206 MiB (15%)
Alignment                        : Aligned on interleaves
Interleave, duration             : 64 ms (1.53 video frames)
Interleave, preload duration     : 512 ms



-------------------------------------------------------------------------------
                                 PLOT:
-------------------------------------------------------------------------------

The stars of Starship Troopers are back in action! Mike (Casper Van Dien) decides to hit the road on his
refurbished classic motorcycle along with best buddy Alex (Patrick Muldoon), but their trek takes a
surprising turn when they become involved in a plan involving political blackmail, corruption, and dirty
money. Carrying evidence that could get them killed at any minute, the boys are chased on the open road
but turn their skills to their own advantage. William Forsythe (Raising Arizona) and Theresa Russell
(Wild Things) also star in this gun-blazing, rip-roaring adventure from the director of Every Which Way
But Loose youll never forget!

-------------------------------------------------------------------------------
                                 CAST:
-------------------------------------------------------------------------------


Casper Van Dien

Patrick Muldoon 

William Forsythe


-------------------------------------------------------------------------------
                               SCREENS:
-------------------------------------------------------------------------------


[img]http://i824.photobucket.com/albums/zz161/akosipalos/brt.png[/img]

[img]http://i824.photobucket.com/albums/zz161/akosipalos/brt1.png[/img]

[img]http://i824.photobucket.com/albums/zz161/akosipalos/brt2.png[/img]

[img]http://i824.photobucket.com/albums/zz161/akosipalos/brt3.png[/img]


-------------------------------------------------------------------------------
                             Release Notes
-------------------------------------------------------------------------------


PRESTiGE - IS LOOKING FOR?: CAMMER'S, AUDIO SUPPLIERS, SYNCER'S, RETAIL
SUPPLIER'S, SILVER'S, SCREENER'S, LINE CAPPER'S

ENCODER'S - ANYTHING AT ALL EMAIL US AT..... prestige@hushmail.me

** ** ** ** ** ** ** ** **

PRESTiGE is the level of respect at which one is regarded by others....RIzE Above Or Sink Below...


-------------------------------------------------------------------------------
                                 GREETZ:
-------------------------------------------------------------------------------


Twisted ,bigguy, Selina, 6of1, CTFX, HiTM4N, bedsy, mtyy, whitestag13, paranoid53, PA4U2C, phules, tac, BMB, Flawl3ss, smelise, fifer, akosipalos, DiLLoN, IMAGINE,"the squad" , floridajoe and To All Encoders Past And Present...


-------------------------------------------------------------------------------
Generated with Cool NFO Creator - http://fly.to/coolbeans
-------------------------------------------------------------------------------
[/pre]